<svg width="290" height="124" viewBox="0 0 290 124" fill="none" xmlns="http://www.w3.org/2000/svg">
<path d="M86.4782 64.5416C83.0528 64.5416 80.1724 63.3739 77.8369 61.0384C75.5014 58.7029 74.3336 55.7705 74.3336 52.2413C74.3336 48.7122 75.5014 45.7798 77.8369 43.4443C80.1724 41.1088 83.0528 39.9411 86.4782 39.9411C89.9036 39.9411 92.784 41.1088 95.1195 43.4443C97.455 45.7798 98.6228 48.7122 98.6228 52.2413C98.6228 55.7705 97.455 58.7029 95.1195 61.0384C92.784 63.3739 89.9036 64.5416 86.4782 64.5416Z" fill="#602B7A"/>
<path d="M124.364 60.5713C126.752 62.9068 129.71 64.0745 133.239 64.0745C136.768 64.0745 139.701 62.9068 142.036 60.5713C144.424 58.2358 145.617 55.3294 145.617 51.8521C145.617 48.3748 144.424 45.4684 142.036 43.1329C139.701 40.7974 136.768 39.6297 133.239 39.6297C129.71 39.6297 126.752 40.7974 124.364 43.1329C122.029 45.4684 120.861 48.3748 120.861 51.8521C120.861 55.3294 122.029 58.2358 124.364 60.5713Z" fill="#602B7A"/>
<path d="M237.316 64.6973C233.786 64.6973 230.854 63.5296 228.519 61.1941C226.183 58.8067 225.015 55.8224 225.015 52.2413C225.015 48.6603 226.183 45.702 228.519 43.3665C230.854 40.9791 233.786 39.7854 237.316 39.7854C240.845 39.7854 243.777 40.9791 246.113 43.3665C248.448 45.702 249.616 48.6603 249.616 52.2413C249.616 55.8224 248.448 58.8067 246.113 61.1941C243.777 63.5296 240.845 64.6973 237.316 64.6973Z" fill="#602B7A"/>
<path fill-rule="evenodd" clip-rule="evenodd" d="M0 0H289.454V98.3365H79.4734L53.8099 124L28.1464 98.3365H0V0ZM167.873 26.9402C169.326 26.9402 170.572 26.4212 171.61 25.3832C172.7 24.2933 173.245 23.0217 173.245 21.5685C173.245 20.1154 172.726 18.8698 171.688 17.8318C170.65 16.7419 169.378 16.1969 167.873 16.1969C166.368 16.1969 165.096 16.7419 164.058 17.8318C163.02 18.8698 162.501 20.1154 162.501 21.5685C162.501 23.0217 163.02 24.2933 164.058 25.3832C165.148 26.4212 166.42 26.9402 167.873 26.9402ZM172.077 32.7789H163.669V71.7038H172.077V32.7789ZM63.2224 63.1403H41.0352V17.209H32.0825V71.7038H63.2224V63.1403ZM71.9203 66.7992C75.9166 70.7436 80.7692 72.7158 86.4782 72.7158C92.2391 72.7158 97.0917 70.7436 101.036 66.7992C105.032 62.8549 107.031 58.0022 107.031 52.2413C107.031 46.4805 105.032 41.6278 101.036 37.6834C97.0917 33.7391 92.2391 31.7669 86.4782 31.7669C80.7692 31.7669 75.9166 33.7391 71.9203 37.6834C67.924 41.6278 65.9259 46.4805 65.9259 52.2413C65.9259 58.0022 67.924 62.8549 71.9203 66.7992ZM145.617 32.7789H153.869V69.9132C153.869 75.8298 151.923 80.371 148.031 83.5369C144.138 86.7028 139.415 88.2858 133.862 88.2858C124.883 88.2858 118.733 85.1458 115.412 78.866L122.652 74.6621C124.676 78.6584 128.464 80.6565 134.018 80.6565C137.651 80.6565 140.479 79.6964 142.503 77.7761C144.579 75.9077 145.617 73.2867 145.617 69.9132V65.1644C142.451 69.6797 137.936 71.9373 132.071 71.9373C126.57 71.9373 121.925 69.9911 118.136 66.0986C114.348 62.1542 112.453 57.4054 112.453 51.8521C112.453 46.2988 114.348 41.5759 118.136 37.6834C121.925 33.7391 126.57 31.7669 132.071 31.7669C137.936 31.7669 142.451 34.0245 145.617 38.5398V32.7789ZM216.249 71.7038H206.206L190.247 53.7205V71.7038H181.839V17.209H190.247V49.9837L205.35 32.7789H215.626L198.499 51.8521L216.249 71.7038ZM258.024 32.7789H249.616V38.3062C246.45 33.9467 241.909 31.7669 235.992 31.7669C230.647 31.7669 226.079 33.7391 222.291 37.6834C218.502 41.6278 216.608 46.4805 216.608 52.2413C216.608 57.9503 218.502 62.803 222.291 66.7992C226.079 70.7436 230.647 72.7158 235.992 72.7158C241.909 72.7158 246.45 70.5101 249.616 66.0986V71.7038H258.024V32.7789Z" fill="#602B7A"/>
</svg>
